<?xml version="1.0" standalone="no"?>
<!DOCTYPE svg PUBLIC "-//W3C//DTD SVG 20010904//EN"
 "http://www.w3.org/TR/2001/REC-SVG-20010904/DTD/svg10.dtd">
<svg version="1.0" xmlns="http://www.w3.org/2000/svg"
 width="312.000000pt" height="77.000000pt" viewBox="0 0 312.000000 77.000000"
 preserveAspectRatio="xMidYMid meet">
<metadata>
Created by potrace 1.16, written by Peter Selinger 2001-2019
</metadata>
<g transform="translate(0.000000,77.000000) scale(0.100000,-0.100000)"
fill="#000000" stroke="none">
<path d="M1020 704 c-85 -18 -172 -62 -239 -119 -29 -25 -61 -50 -70 -55 -15
-8 -193 -16 -548 -24 -62 -1 -116 -6 -120 -10 -15 -14 -15 -190 -1 -209 12
-16 37 -18 228 -22 118 -2 265 -7 326 -11 l112 -6 48 -40 c85 -70 130 -97 210
-125 79 -27 80 -27 412 -31 184 -2 337 0 342 4 4 5 -46 155 -110 334 l-118
325 -203 2 c-145 1 -223 -3 -269 -13z m378 -303 l33 -17 -181 -77 c-100 -42
-186 -77 -191 -77 -5 0 -9 9 -9 19 0 15 33 33 160 87 105 44 156 70 148 76
-25 15 7 7 40 -11z"/>
<path d="M1580 707 c21 -11 41 -59 139 -335 l114 -323 50 3 49 3 19 50 c10 28
58 165 108 305 49 140 92 263 96 272 4 9 19 21 33 27 21 7 9 9 -58 9 -66 0
-79 -2 -59 -9 27 -10 39 -33 39 -77 0 -39 -184 -552 -193 -537 -10 19 -207
584 -207 596 0 5 10 14 23 19 15 6 -8 9 -78 9 -87 1 -97 -1 -75 -12z"/>
<path d="M2256 710 c38 -15 44 -59 44 -319 0 -262 -7 -311 -43 -329 -17 -8 2
-11 88 -11 85 0 105 3 88 11 -38 18 -43 58 -43 323 0 266 6 310 44 325 13 6
-18 9 -89 9 -71 0 -102 -3 -89 -9z"/>
<path d="M2507 708 c34 -16 38 -56 38 -338 0 -271 -3 -292 -48 -310 -16 -6 0
-9 53 -9 60 0 71 2 53 11 -12 6 -25 18 -29 27 -8 17 -18 439 -12 526 l3 50 58
-59 c177 -179 305 -368 348 -513 7 -24 18 -43 26 -43 10 0 13 47 14 248 0 356
5 393 52 412 16 6 0 9 -53 9 -52 0 -68 -3 -54 -9 36 -14 44 -61 43 -259 0
-148 -3 -182 -12 -168 -115 178 -146 218 -279 355 l-81 82 -71 -1 c-58 0 -67
-2 -49 -11z"/>
</g>
</svg>
